<mxfile host="app.diagrams.net" agent="Mozilla/5.0 (Windows NT 10.0; Win64; x64) AppleWebKit/537.36 (KHTML, like Gecko) Chrome/134.0.0.0 Safari/537.36" version="26.1.3">
  <diagram name="Page-1" id="IHDiNsmQmhz-5VVEZd-l">
    <mxGraphModel dx="1354" dy="600" grid="1" gridSize="10" guides="1" tooltips="1" connect="1" arrows="1" fold="1" page="1" pageScale="1" pageWidth="827" pageHeight="1169" math="0" shadow="0">
      <root>
        <mxCell id="0" />
        <mxCell id="1" parent="0" />
        <mxCell id="4BfJKIkU5QFFesI1mYQR-1" value="" style="rounded=0;whiteSpace=wrap;html=1;" vertex="1" parent="1">
          <mxGeometry x="290" y="20" width="290" height="640" as="geometry" />
        </mxCell>
        <mxCell id="4BfJKIkU5QFFesI1mYQR-2" value="Starešina" style="shape=umlActor;verticalLabelPosition=bottom;verticalAlign=top;html=1;outlineConnect=0;" vertex="1" parent="1">
          <mxGeometry x="120" y="150" width="30" height="60" as="geometry" />
        </mxCell>
        <mxCell id="4BfJKIkU5QFFesI1mYQR-3" value="Gospodar" style="shape=umlActor;verticalLabelPosition=bottom;verticalAlign=top;html=1;outlineConnect=0;" vertex="1" parent="1">
          <mxGeometry x="120" y="45" width="30" height="60" as="geometry" />
        </mxCell>
        <mxCell id="4BfJKIkU5QFFesI1mYQR-4" value="Tajnik" style="shape=umlActor;verticalLabelPosition=bottom;verticalAlign=top;html=1;outlineConnect=0;" vertex="1" parent="1">
          <mxGeometry x="120" y="260" width="30" height="60" as="geometry" />
        </mxCell>
        <mxCell id="4BfJKIkU5QFFesI1mYQR-5" value="&lt;b&gt;PU.M.OU.OS -&lt;/b&gt; Organizacija sestankov" style="ellipse;whiteSpace=wrap;html=1;" vertex="1" parent="1">
          <mxGeometry x="320" y="280" width="120" height="60" as="geometry" />
        </mxCell>
        <mxCell id="4BfJKIkU5QFFesI1mYQR-6" value="&lt;b&gt;PU.M.OU.ODA -&lt;/b&gt; Organizacija delovnih akcij" style="ellipse;whiteSpace=wrap;html=1;" vertex="1" parent="1">
          <mxGeometry x="400" y="50" width="130" height="60" as="geometry" />
        </mxCell>
        <mxCell id="4BfJKIkU5QFFesI1mYQR-7" value="&lt;b&gt;PU.M.OU.PP -&lt;/b&gt; Priprava poročil" style="ellipse;whiteSpace=wrap;html=1;" vertex="1" parent="1">
          <mxGeometry x="400" y="130" width="105" height="50" as="geometry" />
        </mxCell>
        <mxCell id="4BfJKIkU5QFFesI1mYQR-8" value="Blagajnik" style="shape=umlActor;verticalLabelPosition=bottom;verticalAlign=top;html=1;outlineConnect=0;" vertex="1" parent="1">
          <mxGeometry x="120" y="535" width="30" height="60" as="geometry" />
        </mxCell>
        <mxCell id="4BfJKIkU5QFFesI1mYQR-9" value="&lt;b&gt;PU.M.OU.IR -&lt;/b&gt; Izdaja računov" style="ellipse;whiteSpace=wrap;html=1;" vertex="1" parent="1">
          <mxGeometry x="320" y="520" width="100" height="60" as="geometry" />
        </mxCell>
        <mxCell id="4BfJKIkU5QFFesI1mYQR-10" value="&lt;b&gt;PU.M.OU.IO -&lt;/b&gt; Izdaja opominov" style="ellipse;whiteSpace=wrap;html=1;" vertex="1" parent="1">
          <mxGeometry x="320" y="595" width="110" height="55" as="geometry" />
        </mxCell>
        <mxCell id="4BfJKIkU5QFFesI1mYQR-11" value="&lt;b&gt;PU.M.OU.DN -&lt;/b&gt; Dodelitev nalog" style="ellipse;whiteSpace=wrap;html=1;" vertex="1" parent="1">
          <mxGeometry x="400" y="210" width="110" height="60" as="geometry" />
        </mxCell>
        <mxCell id="4BfJKIkU5QFFesI1mYQR-12" value="&lt;b&gt;PU.M.OU.PLP -&lt;/b&gt; Priprava letnih poročil" style="ellipse;whiteSpace=wrap;html=1;" vertex="1" parent="1">
          <mxGeometry x="322" y="360" width="128" height="60" as="geometry" />
        </mxCell>
        <mxCell id="4BfJKIkU5QFFesI1mYQR-13" value="&lt;b&gt;PU.M.OU.BS -&lt;/b&gt; Beleženje sklepov" style="ellipse;whiteSpace=wrap;html=1;" vertex="1" parent="1">
          <mxGeometry x="320" y="430" width="120" height="60" as="geometry" />
        </mxCell>
        <mxCell id="4BfJKIkU5QFFesI1mYQR-14" value="" style="endArrow=classic;html=1;rounded=0;exitX=1;exitY=0.3333333333333333;exitDx=0;exitDy=0;exitPerimeter=0;entryX=0;entryY=0.5;entryDx=0;entryDy=0;fillColor=#FF3A3A;" edge="1" parent="1" source="4BfJKIkU5QFFesI1mYQR-4" target="4BfJKIkU5QFFesI1mYQR-13">
          <mxGeometry width="50" height="50" relative="1" as="geometry">
            <mxPoint x="390" y="540" as="sourcePoint" />
            <mxPoint x="440" y="490" as="targetPoint" />
          </mxGeometry>
        </mxCell>
        <mxCell id="4BfJKIkU5QFFesI1mYQR-15" value="" style="endArrow=classic;html=1;rounded=0;exitX=1;exitY=0.3333333333333333;exitDx=0;exitDy=0;exitPerimeter=0;entryX=0;entryY=0.5;entryDx=0;entryDy=0;" edge="1" parent="1" source="4BfJKIkU5QFFesI1mYQR-3" target="4BfJKIkU5QFFesI1mYQR-6">
          <mxGeometry width="50" height="50" relative="1" as="geometry">
            <mxPoint x="390" y="370" as="sourcePoint" />
            <mxPoint x="440" y="320" as="targetPoint" />
          </mxGeometry>
        </mxCell>
        <mxCell id="4BfJKIkU5QFFesI1mYQR-16" value="" style="endArrow=classic;html=1;rounded=0;exitX=1;exitY=0.3333333333333333;exitDx=0;exitDy=0;exitPerimeter=0;entryX=0;entryY=0.5;entryDx=0;entryDy=0;" edge="1" parent="1" source="4BfJKIkU5QFFesI1mYQR-3" target="4BfJKIkU5QFFesI1mYQR-7">
          <mxGeometry width="50" height="50" relative="1" as="geometry">
            <mxPoint x="400" y="380" as="sourcePoint" />
            <mxPoint x="450" y="330" as="targetPoint" />
          </mxGeometry>
        </mxCell>
        <mxCell id="4BfJKIkU5QFFesI1mYQR-17" value="" style="endArrow=classic;html=1;rounded=0;exitX=1;exitY=0.3333333333333333;exitDx=0;exitDy=0;exitPerimeter=0;entryX=0;entryY=0.5;entryDx=0;entryDy=0;" edge="1" parent="1" source="4BfJKIkU5QFFesI1mYQR-2" target="4BfJKIkU5QFFesI1mYQR-11">
          <mxGeometry width="50" height="50" relative="1" as="geometry">
            <mxPoint x="410" y="390" as="sourcePoint" />
            <mxPoint x="460" y="340" as="targetPoint" />
          </mxGeometry>
        </mxCell>
        <mxCell id="4BfJKIkU5QFFesI1mYQR-18" value="" style="endArrow=classic;html=1;rounded=0;exitX=1;exitY=0.3333333333333333;exitDx=0;exitDy=0;exitPerimeter=0;entryX=0;entryY=0.5;entryDx=0;entryDy=0;" edge="1" parent="1" source="4BfJKIkU5QFFesI1mYQR-4" target="4BfJKIkU5QFFesI1mYQR-5">
          <mxGeometry width="50" height="50" relative="1" as="geometry">
            <mxPoint x="420" y="400" as="sourcePoint" />
            <mxPoint x="470" y="350" as="targetPoint" />
          </mxGeometry>
        </mxCell>
        <mxCell id="4BfJKIkU5QFFesI1mYQR-19" value="" style="endArrow=classic;html=1;rounded=0;exitX=1;exitY=0.3333333333333333;exitDx=0;exitDy=0;exitPerimeter=0;entryX=0;entryY=0.5;entryDx=0;entryDy=0;" edge="1" parent="1" source="4BfJKIkU5QFFesI1mYQR-4" target="4BfJKIkU5QFFesI1mYQR-12">
          <mxGeometry width="50" height="50" relative="1" as="geometry">
            <mxPoint x="430" y="410" as="sourcePoint" />
            <mxPoint x="480" y="360" as="targetPoint" />
          </mxGeometry>
        </mxCell>
        <mxCell id="4BfJKIkU5QFFesI1mYQR-20" value="" style="endArrow=classic;html=1;rounded=0;exitX=1;exitY=0.3333333333333333;exitDx=0;exitDy=0;exitPerimeter=0;entryX=0;entryY=0.5;entryDx=0;entryDy=0;" edge="1" parent="1" source="4BfJKIkU5QFFesI1mYQR-8" target="4BfJKIkU5QFFesI1mYQR-10">
          <mxGeometry width="50" height="50" relative="1" as="geometry">
            <mxPoint x="440" y="420" as="sourcePoint" />
            <mxPoint x="490" y="370" as="targetPoint" />
          </mxGeometry>
        </mxCell>
        <mxCell id="4BfJKIkU5QFFesI1mYQR-21" value="" style="endArrow=classic;html=1;rounded=0;exitX=1;exitY=0.3333333333333333;exitDx=0;exitDy=0;exitPerimeter=0;entryX=0;entryY=0.5;entryDx=0;entryDy=0;" edge="1" parent="1" source="4BfJKIkU5QFFesI1mYQR-8" target="4BfJKIkU5QFFesI1mYQR-9">
          <mxGeometry width="50" height="50" relative="1" as="geometry">
            <mxPoint x="450" y="430" as="sourcePoint" />
            <mxPoint x="500" y="380" as="targetPoint" />
          </mxGeometry>
        </mxCell>
      </root>
    </mxGraphModel>
  </diagram>
</mxfile>
